<svg xmlns="http://www.w3.org/2000/svg" viewBox="0 0 96 89.82"><defs><style>.cls-1{fill:#a50000;}</style></defs><title>ChiliIcon</title><g id="Layer_2" data-name="Layer 2"><g id="layer_1-2" data-name="layer 1"><path class="cls-1" d="M95.69,73.67a3,3,0,0,0-3.45-1.57,29.27,29.27,0,0,1-27.16-7.25c-7.62-7.34-10-15.6-12.74-25.17a125.4,125.4,0,0,0-4.57-13.83A27.07,27.07,0,0,0,36,13.51c-6.14-3-15.53-1.49-23,4.66C9,14.46,6,9.51,6,3A3,3,0,0,0,0,3c0,7.36,3.12,14,8.87,19.39a29.45,29.45,0,0,0-2.18,3c-4.92,7.86-4.91,17,0,24.54C16.05,64.1,30.79,77.68,46.16,86.29a30.57,30.57,0,0,0,15,3.53c10.89,0,23.35-4.38,33.69-12.46A3,3,0,0,0,95.69,73.67Zm-46.6,7.39C34.74,73,20.42,59.84,11.74,46.65c-3.68-5.57-3.66-12.15,0-18.06a27.36,27.36,0,0,1,1.78-2.47,47.76,47.76,0,0,0,6.15,3.59,3,3,0,1,0,2.6-5.42A41.06,41.06,0,0,1,18,21.93,19.67,19.67,0,0,1,29.1,18a9.85,9.85,0,0,1,4.29.87,21.29,21.29,0,0,1,8.84,9.24,120.91,120.91,0,0,1,4.35,13.19c2.73,9.52,5.55,19.37,14.34,27.84A35.65,35.65,0,0,0,81.4,78.73C69.79,84.41,57.13,85.56,49.09,81.06Z"/><path class="cls-1" d="M20.39,40.18a3,3,0,0,0-4.78,3.63c13,17.11,25.75,29.8,35,34.82A22,22,0,0,0,61.06,81a3,3,0,0,0,0-6,16.17,16.17,0,0,1-7.61-1.64C45.07,68.8,32.71,56.4,20.39,40.18Z"/></g></g></svg>